<svg width="834" height="280" viewBox="0 0 834 280" fill="none" xmlns="http://www.w3.org/2000/svg">
<path d="M70.7857 267.302C70.7857 268.981 70.0248 269.798 68.5248 269.798C66.9813 269.798 66.1986 268.959 66.1986 267.302V237.804C66.1986 236.147 66.9813 235.308 68.5248 235.308H80.6773C84.1991 235.308 86.9166 236.255 88.808 238.148C90.5906 239.955 91.482 242.387 91.482 245.442C91.482 248.476 90.5906 250.886 88.808 252.65C86.8949 254.5 84.1774 255.425 80.6773 255.425H70.7857V267.302ZM70.7857 239.783V250.907H81.5686C85.1339 250.907 86.9384 249.078 86.9384 245.442C86.9384 243.85 86.4818 242.516 85.5905 241.483C84.6122 240.343 83.2861 239.783 81.5904 239.783H70.7857Z" fill="#64676B"/>
<path d="M115.134 266.569C113.091 268.871 110.438 270.011 107.177 270.011C103.916 270.011 101.286 268.871 99.2206 266.569C97.2423 264.352 96.2422 261.598 96.2422 258.285C96.2422 254.971 97.2423 252.196 99.2206 249.98C101.286 247.699 103.916 246.559 107.177 246.559C110.438 246.559 113.069 247.699 115.134 249.98C117.112 252.196 118.112 254.971 118.112 258.285C118.112 261.598 117.112 264.352 115.134 266.569ZM111.982 252.906C110.808 251.378 109.199 250.625 107.177 250.625C105.156 250.625 103.547 251.378 102.373 252.906C101.286 254.304 100.742 256.09 100.742 258.285C100.742 260.458 101.286 262.244 102.373 263.642C103.547 265.17 105.156 265.923 107.177 265.923C109.199 265.923 110.808 265.17 111.982 263.642C113.069 262.244 113.612 260.458 113.612 258.285C113.612 256.112 113.069 254.326 111.982 252.906Z" fill="#64676B"/>
<path d="M143.962 262.074L148.179 248.303C148.483 247.292 149.092 246.776 149.984 246.776C151.375 246.776 152.071 247.464 152.071 248.82C152.071 249.078 152.005 249.401 151.853 249.745L145.983 268.421C145.679 269.346 145.07 269.798 144.136 269.798C143.179 269.798 142.527 269.325 142.222 268.378L137.353 254.199L132.526 268.378C132.179 269.325 131.548 269.798 130.613 269.798C129.592 269.798 128.961 269.346 128.744 268.421L122.874 249.745C122.744 249.401 122.678 249.078 122.678 248.82C122.678 247.443 123.352 246.776 124.722 246.776C125.613 246.776 126.222 247.292 126.548 248.303L130.744 262.074L135.527 248.196C135.831 247.249 136.44 246.776 137.353 246.776C138.244 246.776 138.853 247.249 139.179 248.196L143.962 262.074Z" fill="#64676B"/>
<path d="M174.571 250.003C176.375 252.219 177.267 254.995 177.267 258.351C177.267 259.427 176.68 259.986 175.549 259.986H161.288C161.571 264.117 163.723 266.183 167.723 266.183C169.766 266.183 171.614 265.344 173.266 263.687C173.723 263.171 174.223 262.913 174.745 262.913C175.984 262.913 176.614 263.58 176.614 264.914C176.614 265.365 176.419 265.817 176.027 266.291C174.027 268.786 171.201 270.034 167.549 270.034C164.136 270.034 161.418 268.873 159.44 266.549C157.592 264.397 156.657 261.643 156.657 258.308C156.657 254.93 157.657 252.133 159.679 249.895C161.723 247.679 164.266 246.582 167.353 246.582C170.288 246.56 172.701 247.701 174.571 250.003ZM173.114 256.092C172.919 254.478 172.31 253.144 171.288 252.09C170.201 250.95 168.875 250.39 167.332 250.39C163.875 250.39 161.875 252.284 161.353 256.092H173.114Z" fill="#64676B"/>
<path d="M194.636 251.164C190.593 251.164 188.571 253.768 188.571 258.996V267.387C188.571 268.979 187.81 269.797 186.31 269.797C184.81 269.797 184.071 269.001 184.071 267.387V249.206C184.071 247.571 184.832 246.753 186.353 246.753C187.832 246.753 188.571 247.571 188.571 249.206V251.401C189.441 248.238 191.462 246.646 194.636 246.646C196.028 246.646 196.745 247.399 196.745 248.905C196.745 250.411 196.049 251.164 194.636 251.164Z" fill="#64676B"/>
<path d="M204.094 237.63C205.833 237.63 206.703 238.577 206.703 240.449C206.703 242.342 205.833 243.267 204.094 243.267C202.333 243.267 201.463 242.32 201.463 240.449C201.442 238.577 202.333 237.63 204.094 237.63ZM206.333 267.387C206.333 268.979 205.594 269.796 204.094 269.796C202.594 269.796 201.833 269 201.833 267.387V249.163C201.833 247.57 202.594 246.753 204.094 246.753C205.594 246.753 206.333 247.549 206.333 249.163V267.387Z" fill="#64676B"/>
<path d="M234.377 267.386C234.377 268.978 233.638 269.796 232.138 269.796C230.638 269.796 229.899 269 229.899 267.386V257.166C229.899 252.992 228.094 250.905 224.486 250.905C222.746 250.905 221.355 251.507 220.333 252.734C219.355 253.896 218.855 255.402 218.855 257.209V267.386C218.855 268.978 218.094 269.796 216.594 269.796C215.094 269.796 214.355 269 214.355 267.386V249.205C214.355 247.57 215.094 246.752 216.594 246.752C218.094 246.752 218.855 247.57 218.855 249.205V250.862C220.246 248 222.529 246.559 225.703 246.559C228.399 246.559 230.529 247.527 232.094 249.485C233.594 251.378 234.355 253.853 234.355 256.929V267.386H234.377Z" fill="#64676B"/>
<path d="M262.748 267.816C262.748 271.496 261.879 274.314 260.161 276.251C258.27 278.338 255.422 279.371 251.574 279.371C250.139 279.371 248.748 279.22 247.443 278.897C245.965 278.51 244.574 277.929 243.248 277.111C242.465 276.616 242.052 275.971 242.052 275.218C242.052 274.443 242.378 273.841 243.008 273.475C243.682 273.066 244.443 273.131 245.248 273.647C247.182 274.874 249.204 275.498 251.27 275.498C253.857 275.498 255.683 274.852 256.791 273.54C257.748 272.399 258.248 270.614 258.248 268.161V264.89C256.726 267.752 254.313 269.193 250.987 269.193C247.943 269.193 245.465 268.075 243.595 265.837C241.813 263.728 240.921 261.06 240.921 257.855C240.921 254.627 241.813 251.981 243.595 249.851C245.465 247.656 247.922 246.559 250.987 246.559C254.4 246.559 256.857 248 258.4 250.862V249.205C258.4 247.57 259.118 246.752 260.552 246.752C262.009 246.752 262.748 247.548 262.748 249.162V267.816ZM256.509 252.712C255.313 251.292 253.77 250.582 251.878 250.582C249.965 250.582 248.422 251.271 247.226 252.648C246.052 254.003 245.443 255.724 245.443 257.855C245.443 259.963 246.03 261.684 247.226 263.061C248.422 264.438 249.987 265.127 251.878 265.127C253.77 265.127 255.313 264.417 256.509 262.997C257.683 261.62 258.248 259.899 258.248 257.855C258.248 255.81 257.683 254.089 256.509 252.712Z" fill="#64676B"/>
<path d="M306.119 235.909C306.598 235.22 307.206 234.876 307.946 234.876C309.337 234.876 310.033 235.608 310.033 237.071C310.033 237.544 309.88 238.039 309.554 238.555L299.011 254.391V267.301C299.011 268.979 298.228 269.797 296.663 269.797C295.119 269.797 294.337 268.958 294.337 267.301V254.391L283.771 238.555C283.467 238.039 283.315 237.544 283.315 237.071C283.315 235.608 284.01 234.876 285.402 234.876C286.119 234.876 286.728 235.22 287.228 235.909L296.684 250.045L306.119 235.909Z" fill="#64676B"/>
<path d="M332.99 266.569C330.946 268.871 328.294 270.011 325.033 270.011C321.772 270.011 319.141 268.871 317.076 266.569C315.098 264.352 314.098 261.598 314.098 258.285C314.098 254.971 315.098 252.196 317.076 249.98C319.141 247.699 321.772 246.559 325.033 246.559C328.294 246.559 330.924 247.699 332.99 249.98C334.968 252.196 335.968 254.971 335.968 258.285C335.968 261.598 334.968 264.352 332.99 266.569ZM329.837 252.906C328.663 251.378 327.055 250.625 325.033 250.625C323.011 250.625 321.402 251.378 320.228 252.906C319.141 254.304 318.598 256.09 318.598 258.285C318.598 260.458 319.141 262.244 320.228 263.642C321.402 265.17 323.011 265.923 325.033 265.923C327.055 265.923 328.663 265.17 329.837 263.642C330.924 262.244 331.468 260.458 331.468 258.285C331.468 256.112 330.924 254.326 329.837 252.906Z" fill="#64676B"/>
<path d="M342.446 249.162C342.446 247.57 343.185 246.752 344.685 246.752C346.185 246.752 346.946 247.549 346.946 249.162V259.404C346.946 263.556 348.75 265.622 352.338 265.622C354.077 265.622 355.468 265.02 356.49 263.793C357.49 262.631 357.99 261.147 357.99 259.339V249.141C357.99 247.549 358.729 246.731 360.229 246.731C361.729 246.731 362.468 247.527 362.468 249.141V267.322C362.468 268.957 361.729 269.775 360.229 269.775C358.729 269.775 357.99 268.957 357.99 267.322V265.708C356.599 268.57 354.294 270.011 351.12 270.011C348.424 270.011 346.294 269.022 344.729 267.064C343.229 265.17 342.468 262.696 342.468 259.619V249.162H342.446Z" fill="#64676B"/>
<path d="M381.143 251.164C377.099 251.164 375.078 253.768 375.078 258.996V267.387C375.078 268.979 374.317 269.797 372.817 269.797C371.317 269.797 370.578 269.001 370.578 267.387V249.206C370.578 247.571 371.338 246.753 372.86 246.753C374.338 246.753 375.078 247.571 375.078 249.206V251.401C375.947 248.238 377.969 246.646 381.143 246.646C382.534 246.646 383.252 247.399 383.252 248.905C383.252 250.411 382.534 251.164 381.143 251.164Z" fill="#64676B"/>
<path d="M426.558 266.44C424.514 268.398 421.732 269.388 418.21 269.388H406.557C405.036 269.388 404.275 268.549 404.275 266.892V237.738C404.275 236.103 405.036 235.285 406.557 235.285H417.688C420.666 235.285 423.036 236.059 424.797 237.609C426.558 239.136 427.427 241.18 427.427 243.741C427.427 247.183 425.797 249.636 422.514 251.121C424.58 251.53 426.21 252.412 427.384 253.767C428.688 255.295 429.341 257.274 429.341 259.77C429.341 262.438 428.428 264.654 426.558 266.44ZM417.84 239.696H408.862V249.227H417.927C419.471 249.227 420.688 248.732 421.558 247.721C422.384 246.818 422.797 245.699 422.797 244.365C422.819 241.245 421.166 239.696 417.84 239.696ZM408.862 253.617V264.999H418.579C422.688 264.999 424.754 263.084 424.754 259.254C424.754 255.51 422.667 253.617 418.536 253.617H408.862Z" fill="#64676B"/>
<path d="M436.015 249.162C436.015 247.57 436.754 246.752 438.254 246.752C439.754 246.752 440.515 247.549 440.515 249.162V259.404C440.515 263.556 442.319 265.622 445.906 265.622C447.645 265.622 449.037 265.02 450.059 263.793C451.059 262.631 451.559 261.147 451.559 259.339V249.141C451.559 247.549 452.298 246.731 453.798 246.731C455.298 246.731 456.037 247.527 456.037 249.141V267.322C456.037 268.957 455.298 269.775 453.798 269.775C452.298 269.775 451.559 268.957 451.559 267.322V265.708C450.167 268.57 447.863 270.011 444.689 270.011C441.993 270.011 439.863 269.022 438.297 267.064C436.797 265.17 436.036 262.696 436.036 259.619V249.162H436.015Z" fill="#64676B"/>
<path d="M471.972 270.011C468.993 270.011 466.471 269.129 464.363 267.386C463.732 266.848 463.406 266.181 463.406 265.385C463.406 264.266 463.971 263.707 465.124 263.707C465.689 263.707 466.276 263.944 466.906 264.417C467.645 265.019 468.406 265.493 469.211 265.816C470.211 266.224 471.232 266.418 472.298 266.418C474.928 266.418 476.254 265.557 476.254 263.815C476.254 262.459 474.689 261.34 471.559 260.436C466.211 258.887 463.537 256.37 463.537 252.906C463.537 248.667 466.363 246.559 471.993 246.559C474.102 246.559 476.08 247.032 477.906 247.979C479.363 248.732 480.102 249.571 480.102 250.475C480.102 251.679 479.515 252.282 478.385 252.282C477.928 252.282 477.276 252.045 476.428 251.55C475.059 250.776 473.559 250.367 471.906 250.367C469.232 250.367 467.884 251.185 467.884 252.82C467.884 254.068 469.493 255.208 472.732 256.219C475.537 257.08 477.493 257.962 478.58 258.866C479.907 259.942 480.559 261.469 480.559 263.427C480.602 267.817 477.711 270.011 471.972 270.011Z" fill="#64676B"/>
<path d="M489.408 237.63C491.147 237.63 492.016 238.577 492.016 240.449C492.016 242.342 491.147 243.267 489.408 243.267C487.647 243.267 486.777 242.32 486.777 240.449C486.777 238.577 487.647 237.63 489.408 237.63ZM491.647 267.387C491.647 268.979 490.908 269.796 489.408 269.796C487.908 269.796 487.147 269 487.147 267.387V249.163C487.147 247.57 487.908 246.753 489.408 246.753C490.908 246.753 491.647 247.549 491.647 249.163V267.387Z" fill="#64676B"/>
<path d="M519.711 267.386C519.711 268.978 518.972 269.796 517.472 269.796C515.972 269.796 515.233 269 515.233 267.386V257.166C515.233 252.992 513.429 250.905 509.82 250.905C508.081 250.905 506.689 251.507 505.668 252.734C504.689 253.896 504.189 255.402 504.189 257.209V267.386C504.189 268.978 503.428 269.796 501.928 269.796C500.428 269.796 499.689 269 499.689 267.386V249.205C499.689 247.57 500.428 246.752 501.928 246.752C503.428 246.752 504.189 247.57 504.189 249.205V250.862C505.581 248 507.863 246.559 511.037 246.559C513.733 246.559 515.863 247.527 517.429 249.485C518.929 251.378 519.69 253.853 519.69 256.929V267.386H519.711Z" fill="#64676B"/>
<path d="M544.19 250.003C545.994 252.219 546.886 254.995 546.886 258.351C546.886 259.427 546.299 259.986 545.168 259.986H530.907C531.19 264.117 533.342 266.183 537.342 266.183C539.385 266.183 541.233 265.344 542.886 263.687C543.342 263.171 543.842 262.913 544.364 262.913C545.603 262.913 546.233 263.58 546.233 264.914C546.233 265.365 546.038 265.817 545.647 266.291C543.646 268.786 540.82 270.034 537.168 270.034C533.755 270.034 531.037 268.873 529.059 266.549C527.211 264.397 526.276 261.643 526.276 258.308C526.276 254.93 527.276 252.133 529.298 249.895C531.342 247.679 533.885 246.582 536.972 246.582C539.907 246.56 542.32 247.701 544.19 250.003ZM542.733 256.092C542.538 254.478 541.929 253.144 540.907 252.09C539.82 250.95 538.494 250.39 536.951 250.39C533.494 250.39 531.494 252.284 530.972 256.092H542.733Z" fill="#64676B"/>
<path d="M561.539 270.011C558.561 270.011 556.039 269.129 553.931 267.386C553.3 266.848 552.974 266.181 552.974 265.385C552.974 264.266 553.539 263.707 554.691 263.707C555.257 263.707 555.844 263.944 556.474 264.417C557.213 265.019 557.974 265.493 558.779 265.816C559.779 266.224 560.8 266.418 561.866 266.418C564.496 266.418 565.822 265.557 565.822 263.815C565.822 262.459 564.257 261.34 561.126 260.436C555.778 258.887 553.104 256.37 553.104 252.906C553.104 248.667 555.931 246.559 561.561 246.559C563.67 246.559 565.648 247.032 567.474 247.979C568.931 248.732 569.67 249.571 569.67 250.475C569.67 251.679 569.083 252.282 567.953 252.282C567.496 252.282 566.844 252.045 565.996 251.55C564.627 250.776 563.126 250.367 561.474 250.367C558.8 250.367 557.452 251.185 557.452 252.82C557.452 254.068 559.061 255.208 562.3 256.219C565.105 257.08 567.061 257.962 568.148 258.866C569.475 259.942 570.127 261.469 570.127 263.427C570.17 267.817 567.279 270.011 561.539 270.011Z" fill="#64676B"/>
<path d="M584.54 270.011C581.561 270.011 579.039 269.129 576.931 267.386C576.3 266.848 575.974 266.181 575.974 265.385C575.974 264.266 576.539 263.707 577.692 263.707C578.257 263.707 578.844 263.944 579.474 264.417C580.213 265.019 580.974 265.493 581.779 265.816C582.779 266.224 583.8 266.418 584.866 266.418C587.496 266.418 588.822 265.557 588.822 263.815C588.822 262.459 587.257 261.34 584.127 260.436C578.779 258.887 576.105 256.37 576.105 252.906C576.105 248.667 578.931 246.559 584.561 246.559C586.67 246.559 588.648 247.032 590.475 247.979C591.931 248.732 592.67 249.571 592.67 250.475C592.67 251.679 592.083 252.282 590.953 252.282C590.496 252.282 589.844 252.045 588.996 251.55C587.627 250.776 586.127 250.367 584.474 250.367C581.8 250.367 580.452 251.185 580.452 252.82C580.452 254.068 582.061 255.208 585.3 256.219C588.105 257.08 590.062 257.962 591.149 258.866C592.475 259.942 593.127 261.469 593.127 263.427C593.17 267.817 590.301 270.011 584.54 270.011Z" fill="#64676B"/>
<path d="M643.281 262.955C643.281 263.665 643.107 264.202 642.737 264.568C639.672 268.204 635.411 270.012 629.932 270.012C625.15 270.012 621.236 268.334 618.193 264.956C615.215 261.642 613.736 257.425 613.736 252.326C613.736 247.183 615.258 242.945 618.302 239.631C621.323 236.318 625.171 234.661 629.824 234.661C631.998 234.661 633.976 235.005 635.759 235.694C637.694 236.447 639.302 237.566 640.607 239.05C641.085 239.545 641.324 240.083 641.324 240.664C641.324 242.17 640.628 242.923 639.237 242.923C638.737 242.923 638.237 242.729 637.694 242.321C635.15 240.277 632.519 239.244 629.802 239.244C626.411 239.244 623.628 240.513 621.476 243.074C619.389 245.548 618.345 248.625 618.345 252.347C618.345 256.155 619.323 259.318 621.28 261.771C623.389 264.439 626.258 265.773 629.889 265.773C633.606 265.773 636.563 264.74 638.715 262.696V256.392H631.128C629.715 256.392 629.019 255.639 629.019 254.133C629.019 252.67 629.715 251.938 631.128 251.938H640.889C642.433 251.938 643.194 252.777 643.194 254.434V262.955H643.281Z" fill="#64676B"/>
<path d="M661.282 251.164C657.238 251.164 655.216 253.768 655.216 258.996V267.387C655.216 268.979 654.455 269.797 652.955 269.797C651.455 269.797 650.716 269.001 650.716 267.387V249.206C650.716 247.571 651.477 246.753 652.999 246.753C654.477 246.753 655.216 247.571 655.216 249.206V251.401C656.086 248.238 658.108 246.646 661.282 246.646C662.673 246.646 663.39 247.399 663.39 248.905C663.39 250.411 662.695 251.164 661.282 251.164Z" fill="#64676B"/>
<path d="M686.021 266.569C683.978 268.871 681.325 270.011 678.064 270.011C674.803 270.011 672.173 268.871 670.108 266.569C668.129 264.352 667.129 261.598 667.129 258.285C667.129 254.971 668.129 252.196 670.108 249.98C672.173 247.699 674.803 246.559 678.064 246.559C681.325 246.559 683.956 247.699 686.021 249.98C687.999 252.196 688.999 254.971 688.999 258.285C689.021 261.598 688.021 264.352 686.021 266.569ZM682.869 252.906C681.695 251.378 680.086 250.625 678.064 250.625C676.043 250.625 674.434 251.378 673.26 252.906C672.173 254.304 671.629 256.09 671.629 258.285C671.629 260.458 672.173 262.244 673.26 263.642C674.434 265.17 676.043 265.923 678.064 265.923C680.086 265.923 681.695 265.17 682.869 263.642C683.956 262.244 684.499 260.458 684.499 258.285C684.521 256.112 683.978 254.326 682.869 252.906Z" fill="#64676B"/>
<path d="M714.87 262.074L719.088 248.303C719.392 247.292 720.001 246.776 720.892 246.776C722.283 246.776 722.979 247.464 722.979 248.82C722.979 249.078 722.914 249.401 722.762 249.745L716.892 268.421C716.588 269.346 715.979 269.798 715.044 269.798C714.088 269.798 713.435 269.325 713.131 268.378L708.261 254.199L703.435 268.378C703.087 269.325 702.457 269.798 701.522 269.798C700.5 269.798 699.87 269.346 699.652 268.421L693.783 249.745C693.652 249.401 693.587 249.078 693.587 248.82C693.587 247.443 694.261 246.776 695.631 246.776C696.522 246.776 697.131 247.292 697.457 248.303L701.652 262.074L706.435 248.196C706.74 247.249 707.348 246.776 708.261 246.776C709.153 246.776 709.761 247.249 710.087 248.196L714.87 262.074Z" fill="#64676B"/>
<path d="M735.892 267.387C735.892 268.979 735.153 269.797 733.653 269.797C732.153 269.797 731.414 269.001 731.414 267.387V251.164H727.783C726.544 251.164 725.914 250.497 725.914 249.163C725.914 247.829 726.544 247.162 727.783 247.162H731.414V240.47C731.414 238.878 732.153 238.061 733.653 238.061C735.153 238.061 735.892 238.857 735.892 240.47V247.162H740.001C741.24 247.162 741.871 247.829 741.871 249.163C741.871 250.497 741.24 251.164 740.001 251.164H735.892V267.387Z" fill="#64676B"/>
<path d="M766.393 267.387C766.393 268.979 765.654 269.797 764.154 269.797C762.654 269.797 761.914 269.001 761.914 267.387V257.167C761.914 252.993 760.11 250.906 756.501 250.906C754.762 250.906 753.371 251.508 752.349 252.735C751.371 253.896 750.871 255.403 750.871 257.21V267.387C750.871 268.979 750.11 269.797 748.61 269.797C747.11 269.797 746.371 269.001 746.371 267.387V237.329C746.371 235.694 747.11 234.876 748.61 234.876C750.11 234.876 750.871 235.694 750.871 237.329V250.863C752.262 248.001 754.545 246.559 757.719 246.559C760.414 246.559 762.545 247.528 764.11 249.486C765.61 251.379 766.371 253.853 766.371 256.93V267.387H766.393Z" fill="#64676B"/>
<path d="M194.855 47.2991C194.855 44.8032 195.333 42.4795 196.268 40.2848C197.202 38.0902 198.485 36.2183 200.116 34.6261C201.746 33.0339 203.616 31.7645 205.768 30.8178C207.898 29.8711 210.225 29.3977 212.703 29.3977C215.094 29.3977 217.377 29.8711 219.573 30.8178C221.747 31.7645 223.682 33.0339 225.355 34.6261C227.029 36.2183 228.334 38.1117 229.269 40.2848C230.203 42.4795 230.682 44.8032 230.682 47.2991C230.682 49.7949 230.203 52.0971 229.269 54.2488C228.334 56.4004 227.029 58.2938 225.355 59.9075C223.682 61.5427 221.768 62.8337 219.573 63.7589C217.399 64.7056 215.094 65.1789 212.703 65.1789C210.225 65.1789 207.92 64.7056 205.768 63.7589C203.637 62.8121 201.746 61.5212 200.116 59.9075C198.485 58.2723 197.202 56.4004 196.268 54.2488C195.333 52.0971 194.855 49.7734 194.855 47.2991Z" fill="#00B9CD"/>
<path d="M229.508 179.431C229.508 181.754 229.073 183.927 228.225 185.928C227.378 187.951 226.182 189.715 224.704 191.2C223.204 192.706 221.443 193.889 219.443 194.75C217.443 195.611 215.269 196.041 212.964 196.041C210.66 196.041 208.486 195.611 206.486 194.75C204.464 193.889 202.703 192.706 201.159 191.2C199.616 189.694 198.399 187.951 197.507 185.928C196.616 183.906 196.159 181.754 196.159 179.431V92.9144C196.159 90.5906 196.616 88.439 197.507 86.4165C198.399 84.394 199.616 82.6512 201.159 81.1451C202.703 79.6389 204.507 78.4556 206.616 77.5949C208.725 76.7343 210.921 76.304 213.225 76.304C215.529 76.304 217.682 76.7343 219.638 77.5949C221.595 78.4556 223.334 79.6389 224.834 81.1451C226.334 82.6512 227.486 84.4155 228.291 86.4165C229.095 88.439 229.508 90.5906 229.508 92.9144V179.431Z" fill="#00B9CD"/>
<path d="M249.857 47.2991C249.857 44.8032 250.335 42.4795 251.27 40.2848C252.205 38.0902 253.487 36.2183 255.118 34.6261C256.748 33.0339 258.618 31.7645 260.77 30.8178C262.901 29.8711 265.227 29.3977 267.705 29.3977C270.097 29.3977 272.379 29.8711 274.575 30.8178C276.749 31.7645 278.684 33.0339 280.358 34.6261C282.032 36.2183 283.336 38.1117 284.271 40.2848C285.206 42.4795 285.684 44.8032 285.684 47.2991C285.684 49.7949 285.206 52.0971 284.271 54.2488C283.336 56.4004 282.032 58.2938 280.358 59.9075C278.684 61.5427 276.771 62.8337 274.575 63.7589C272.401 64.7056 270.097 65.1789 267.705 65.1789C265.227 65.1789 262.922 64.7056 260.77 63.7589C258.64 62.8121 256.748 61.5212 255.118 59.9075C253.487 58.2723 252.205 56.4004 251.27 54.2488C250.335 52.0971 249.857 49.7734 249.857 47.2991Z" fill="#00B9CD"/>
<path d="M284.51 179.431C284.51 181.754 284.075 183.927 283.227 185.928C282.379 187.951 281.184 189.715 279.705 191.2C278.205 192.706 276.444 193.889 274.444 194.75C272.444 195.611 270.27 196.041 267.966 196.041C265.662 196.041 263.488 195.611 261.488 194.75C259.466 193.889 257.705 192.706 256.161 191.2C254.618 189.694 253.4 187.951 252.509 185.928C251.618 183.906 251.161 181.754 251.161 179.431V92.9144C251.161 90.5906 251.618 88.439 252.509 86.4165C253.4 84.394 254.618 82.6512 256.161 81.1451C257.705 79.6389 259.509 78.4556 261.618 77.5949C263.727 76.7343 265.922 76.304 268.227 76.304C270.531 76.304 272.683 76.7343 274.64 77.5949C276.597 78.4556 278.336 79.6389 279.836 81.1451C281.336 82.6512 282.488 84.4155 283.292 86.4165C284.097 88.439 284.51 90.5906 284.51 92.9144V179.431Z" fill="#00B9CD"/>
<path d="M420.362 179.948C420.362 182.272 419.927 184.402 419.079 186.382C418.232 188.361 417.079 190.104 415.623 191.589C414.166 193.095 412.471 194.257 410.492 195.074C408.514 195.892 406.383 196.301 404.079 196.301C401.775 196.301 399.579 195.892 397.535 195.074C395.492 194.257 393.666 193.095 392.079 191.589C390.492 190.083 389.253 188.34 388.361 186.382C387.47 184.402 387.013 182.251 387.013 179.948V134.872C387.013 134.614 387.013 134.334 387.013 134.033C387.013 133.732 387.057 133.452 387.144 133.194C386.97 129.773 386.231 126.524 384.905 123.469C383.578 120.413 381.796 117.767 379.578 115.486C377.361 113.206 374.752 111.441 371.752 110.15C368.752 108.859 365.513 108.214 361.991 108.214C358.317 108.214 354.947 108.881 351.925 110.215C348.882 111.549 346.273 113.378 344.099 115.68C341.925 118.004 340.229 120.715 339.034 123.856C337.838 126.997 337.229 130.397 337.229 134.098V179.927C337.229 182.251 336.795 184.381 335.947 186.36C335.099 188.34 333.947 190.083 332.49 191.567C331.033 193.073 329.316 194.235 327.359 195.053C325.381 195.87 323.251 196.279 320.946 196.279C318.642 196.279 316.446 195.87 314.403 195.053C312.359 194.235 310.555 193.073 309.011 191.567C307.468 190.061 306.228 188.318 305.294 186.36C304.359 184.381 303.881 182.229 303.881 179.927V134.872V134.227V134.098C303.881 125.857 305.381 118.133 308.381 110.925C311.381 103.717 315.49 97.4343 320.707 92.0553C325.925 86.6978 332.055 82.4591 339.121 79.3823C346.186 76.284 353.817 74.7563 362.034 74.7563C370.252 74.7563 377.904 76.3055 385.013 79.3823C392.122 82.4806 398.296 86.6978 403.557 92.0553C408.818 97.4128 412.949 103.717 415.949 110.925C418.949 118.133 420.449 125.857 420.449 134.098V134.743V134.872V179.948H420.362Z" fill="#00B9CD"/>
<path d="M1.61125 27.7207C0.48078 25.1818 -0.0409735 22.5784 0.00250596 19.9104C0.0677252 17.2639 0.567739 14.7896 1.52429 12.4873C2.48084 10.1851 3.91566 8.09805 5.80702 6.20464C7.69838 4.31122 9.95931 2.84813 12.6116 1.83687C15.0464 0.804102 17.5465 0.330748 20.09 0.37378C22.6336 0.416812 25.0467 0.933198 27.3511 1.90142C29.6338 2.86965 31.6991 4.24668 33.5469 6.03251C35.3948 7.81835 36.8514 9.99147 37.9818 12.5519C37.9818 12.5519 82.3092 116.561 83.2222 118.583C84.5266 121.552 89.2876 121.38 90.5268 118.562C91.4399 116.453 135.441 12.5519 135.441 12.5519C136.463 10.099 137.919 7.94744 139.789 6.11857C141.68 4.28971 143.767 2.86965 146.05 1.90142C148.311 0.933198 150.724 0.438328 153.268 0.37378C155.811 0.330748 158.355 0.804102 160.898 1.83687C163.442 2.86965 165.638 4.28971 167.464 6.11857C169.29 7.94744 170.703 10.056 171.66 12.4013C172.616 14.7465 173.138 17.2424 173.181 19.9104C173.225 22.5569 172.703 25.1818 171.573 27.7207L105.005 184.164C103.375 188.059 100.94 191.028 97.6792 193.136C94.4182 195.223 90.8529 196.321 86.9832 196.428H85.4614L83.4831 196.127C80.2222 195.611 77.2438 194.341 74.5481 192.297C71.8524 190.253 69.7871 187.542 68.3523 184.186L1.61125 27.7207Z" fill="#00B9CD"/>
<path d="M572.932 136.165C572.932 127.666 574.563 119.705 577.802 112.282C581.041 104.859 585.454 98.3612 591.02 92.767C596.585 87.1944 603.063 82.7836 610.455 79.5777C617.846 76.3503 625.738 74.7581 634.129 74.7581C642.608 74.7581 650.521 76.3718 657.935 79.5777C665.326 82.8051 671.804 87.1944 677.305 92.767C682.826 98.3397 687.174 104.859 690.392 112.282C693.609 119.705 695.196 127.666 695.196 136.165C695.196 144.578 693.588 152.517 690.392 159.983C687.174 167.449 682.826 173.969 677.305 179.541C671.783 185.114 665.326 189.525 657.935 192.731C650.543 195.958 642.608 197.55 634.129 197.55C625.738 197.55 617.846 195.937 610.455 192.731C603.063 189.503 596.563 185.114 591.02 179.541C585.454 173.969 581.041 167.449 577.802 159.983C574.563 152.517 572.932 144.578 572.932 136.165ZM606.303 136.165C606.303 140.038 607.042 143.653 608.542 147.052C610.042 150.452 612.042 153.399 614.564 155.938C617.086 158.477 620.042 160.457 623.412 161.92C626.781 163.383 630.368 164.114 634.129 164.114C637.977 164.114 641.586 163.383 644.978 161.92C648.347 160.457 651.282 158.477 653.76 155.938C656.239 153.399 658.195 150.452 659.652 147.052C661.108 143.653 661.826 140.038 661.826 136.165C661.826 132.314 661.108 128.677 659.652 125.278C658.195 121.878 656.239 118.931 653.76 116.392C651.282 113.853 648.347 111.873 644.978 110.41C641.586 108.947 637.977 108.216 634.129 108.216C630.368 108.216 626.803 108.947 623.412 110.41C620.02 111.873 617.086 113.874 614.564 116.392C612.042 118.931 610.02 121.878 608.542 125.278C607.042 128.677 606.303 132.314 606.303 136.165Z" fill="#804282"/>
<path d="M710.893 136.165C710.893 127.666 712.523 119.705 715.762 112.282C719.023 104.859 723.415 98.3612 728.98 92.767C734.545 87.1944 741.024 82.7836 748.415 79.5777C755.807 76.3503 763.698 74.7581 772.09 74.7581C780.568 74.7581 788.503 76.3718 795.895 79.5777C803.286 82.8051 809.743 87.1944 815.265 92.767C820.787 98.3397 825.157 104.859 828.352 112.282C831.57 119.705 833.157 127.666 833.157 136.165C833.157 144.578 831.548 152.517 828.352 159.983C825.135 167.449 820.787 173.969 815.265 179.541C809.743 185.114 803.286 189.525 795.895 192.731C788.503 195.958 780.547 197.55 772.09 197.55C763.698 197.55 755.807 195.937 748.415 192.731C741.002 189.503 734.524 185.114 728.98 179.541C723.415 173.969 719.023 167.449 715.762 159.983C712.523 152.517 710.893 144.578 710.893 136.165ZM744.263 136.165C744.263 140.038 745.002 143.653 746.502 147.052C748.002 150.452 750.002 153.399 752.524 155.938C755.046 158.477 758.003 160.457 761.372 161.92C764.742 163.383 768.329 164.114 772.09 164.114C775.938 164.114 779.547 163.383 782.938 161.92C786.308 160.457 789.243 158.477 791.721 155.938C794.199 153.399 796.178 150.452 797.634 147.052C799.091 143.653 799.808 140.038 799.808 136.165C799.808 132.314 799.091 128.677 797.634 125.278C796.178 121.878 794.199 118.931 791.721 116.392C789.243 113.853 786.308 111.873 782.938 110.41C779.568 108.947 775.938 108.216 772.09 108.216C768.329 108.216 764.764 108.947 761.372 110.41C758.003 111.873 755.046 113.874 752.524 116.392C750.002 118.931 747.981 121.878 746.502 125.278C745.002 128.677 744.263 132.314 744.263 136.165Z" fill="#804282"/>
<path d="M558.214 24.2581V17.8894C558.214 15.4796 557.801 13.2204 556.953 11.0903C556.084 8.93867 554.888 7.08828 553.345 5.53913C551.801 3.98997 549.997 2.78507 547.953 1.88139C545.888 0.977717 543.714 0.525879 541.409 0.525879C539.018 0.525879 536.822 0.977717 534.8 1.88139C532.8 2.78507 531.04 3.98997 529.539 5.53913C528.039 7.08828 526.887 8.93867 526.105 11.0903C525.278 13.2419 524.865 15.5011 524.865 17.8894V24.2366V40.8685V47.4525V63.8047V81.5555C520.604 79.4038 516.148 77.7471 511.517 76.5422C506.908 75.3588 502.082 74.7349 497.017 74.7349C488.56 74.7349 480.625 76.3486 473.212 79.576C465.799 82.7819 459.364 87.1927 453.82 92.7868C448.32 98.3595 443.95 104.857 440.733 112.28C437.515 119.703 435.928 127.664 435.928 136.163C435.928 144.598 437.515 152.516 440.733 160.003C443.95 167.448 448.32 173.967 453.82 179.561C459.342 185.134 465.799 189.545 473.212 192.751C480.625 195.956 488.56 197.592 497.017 197.592C505.321 197.592 513.169 195.999 520.517 192.837C527.866 189.652 534.322 185.306 539.909 179.841C545.453 174.333 549.866 167.921 553.127 160.584C556.366 153.247 558.084 145.415 558.258 137.088V63.8262V47.474V24.2581H558.214ZM522.604 147.05C521.104 150.45 519.104 153.398 516.583 155.937C514.039 158.475 511.104 160.476 507.713 161.94C504.343 163.381 500.778 164.134 496.995 164.134C493.147 164.134 489.538 163.403 486.147 161.94C482.777 160.498 479.842 158.497 477.364 155.937C474.886 153.419 472.907 150.471 471.473 147.05C470.016 143.672 469.277 140.036 469.277 136.163C469.277 132.312 469.994 128.697 471.473 125.276C472.907 121.898 474.886 118.929 477.364 116.39C479.864 113.873 482.777 111.872 486.147 110.387C489.538 108.945 493.147 108.214 496.995 108.214C500.778 108.214 504.343 108.924 507.713 110.387C511.104 111.872 514.039 113.873 516.583 116.39C519.104 118.907 521.104 121.898 522.604 125.276C524.105 128.676 524.844 132.29 524.844 136.163C524.844 140.015 524.105 143.672 522.604 147.05Z" fill="#804282"/>
</svg>
