<svg width="850" height="201" viewBox="0 0 850 201" fill="none" xmlns="http://www.w3.org/2000/svg">
<path d="M186.897 48.2477C186.897 45.7266 187.376 43.3527 188.314 41.126C189.253 38.8993 190.541 36.9855 192.179 35.3845C193.816 33.7651 195.694 32.4953 197.847 31.5384C200 30.5815 202.318 30.103 204.803 30.103C207.195 30.103 209.514 30.5815 211.703 31.5384C213.893 32.4953 215.826 33.7835 217.5 35.3845C219.175 37.0039 220.481 38.9177 221.438 41.126C222.377 43.3527 222.855 45.7266 222.855 48.2477C222.855 50.7688 222.377 53.1243 221.438 55.2958C220.5 57.4672 219.175 59.3811 217.5 61.0373C215.826 62.6935 213.893 64 211.703 64.957C209.514 65.9139 207.213 66.3923 204.803 66.3923C202.318 66.3923 200 65.9139 197.847 64.957C195.694 64 193.816 62.6935 192.179 61.0373C190.541 59.3811 189.253 57.4672 188.314 55.2958C187.376 53.1243 186.897 50.7688 186.897 48.2477Z" fill="white"/>
<path d="M221.677 182.254C221.677 184.609 221.236 186.799 220.389 188.842C219.524 190.884 218.347 192.669 216.838 194.197C215.329 195.724 213.58 196.92 211.556 197.785C209.532 198.65 207.379 199.092 205.06 199.092C202.741 199.092 200.57 198.65 198.564 197.785C196.54 196.92 194.773 195.724 193.209 194.197C191.663 192.669 190.449 190.884 189.529 188.842C188.627 186.799 188.167 184.591 188.167 182.254V94.5117C188.167 92.1562 188.627 89.9663 189.529 87.9237C190.43 85.881 191.645 84.096 193.209 82.5686C194.773 81.0412 196.577 79.8451 198.675 78.9802C200.772 78.1152 202.999 77.6736 205.318 77.6736C207.636 77.6736 209.79 78.1152 211.759 78.9802C213.728 79.8451 215.476 81.0412 216.966 82.5686C218.475 84.096 219.635 85.881 220.444 87.9237C221.254 89.9663 221.677 92.1746 221.677 94.5117V182.254Z" fill="white"/>
<path d="M250.79 48.2477C250.79 45.7266 251.268 43.3527 252.206 41.126C253.145 38.8993 254.433 36.9855 256.071 35.3845C257.709 33.7651 259.586 32.4953 261.739 31.5384C263.892 30.5815 266.211 30.103 268.695 30.103C271.087 30.103 273.406 30.5815 275.596 31.5384C277.786 32.4953 279.718 33.7835 281.393 35.3845C283.067 37.0039 284.374 38.9177 285.331 41.126C286.269 43.3527 286.748 45.7266 286.748 48.2477C286.748 50.7688 286.269 53.1243 285.331 55.2958C284.392 57.4672 283.067 59.3811 281.393 61.0373C279.718 62.6935 277.786 64 275.596 64.957C273.406 65.9139 271.106 66.3923 268.695 66.3923C266.211 66.3923 263.892 65.9139 261.739 64.957C259.586 64 257.709 62.6935 256.071 61.0373C254.433 59.3811 253.145 57.4672 252.206 55.2958C251.268 53.1243 250.79 50.7688 250.79 48.2477Z" fill="white"/>
<path d="M285.57 182.254C285.57 184.609 285.128 186.799 284.282 188.842C283.417 190.884 282.239 192.669 280.73 194.197C279.221 195.724 277.473 196.92 275.448 197.785C273.424 198.65 271.271 199.092 268.952 199.092C266.634 199.092 264.462 198.65 262.456 197.785C260.432 196.92 258.666 195.724 257.101 194.197C255.556 192.669 254.341 190.884 253.421 188.842C252.519 186.799 252.059 184.591 252.059 182.254V94.5117C252.059 92.1562 252.519 89.9663 253.421 87.9237C254.323 85.881 255.537 84.096 257.101 82.5686C258.647 81.0412 260.469 79.8451 262.567 78.9802C264.665 78.1152 266.891 77.6736 269.21 77.6736C271.529 77.6736 273.682 78.1152 275.651 78.9802C277.62 79.8451 279.368 81.0412 280.859 82.5686C282.368 84.096 283.527 85.881 284.337 87.9237C285.146 89.9663 285.57 92.1746 285.57 94.5117V182.254Z" fill="white"/>
<path d="M430.617 182.788C430.617 185.143 430.176 187.315 429.329 189.32C428.464 191.326 427.305 193.093 425.851 194.602C424.397 196.129 422.668 197.307 420.699 198.135C418.729 198.963 416.576 199.368 414.258 199.368C411.939 199.368 409.749 198.963 407.688 198.135C405.627 197.307 403.805 196.129 402.223 194.602C400.622 193.075 399.389 191.308 398.487 189.32C397.585 187.315 397.125 185.143 397.125 182.788V137.076C397.125 136.819 397.125 136.543 397.125 136.23C397.125 135.917 397.162 135.641 397.254 135.383C397.088 131.905 396.334 128.611 394.991 125.52C393.666 122.428 391.881 119.723 389.654 117.423C387.427 115.122 384.796 113.319 381.796 112.012C378.797 110.706 375.521 110.062 372.006 110.062C368.307 110.062 364.94 110.743 361.885 112.086C358.83 113.429 356.217 115.288 354.027 117.644C351.837 119.999 350.144 122.759 348.948 125.925C347.752 129.108 347.145 132.568 347.145 136.303V182.788C347.145 185.143 346.703 187.315 345.856 189.32C344.992 191.326 343.832 193.093 342.378 194.602C340.925 196.129 339.195 197.307 337.226 198.135C335.257 198.963 333.104 199.368 330.785 199.368C328.466 199.368 326.276 198.963 324.215 198.135C322.154 197.307 320.351 196.129 318.805 194.602C317.259 193.075 316.008 191.308 315.069 189.32C314.131 187.315 313.652 185.143 313.652 182.788V137.076V136.432V136.303C313.652 127.949 315.161 120.109 318.161 112.804C321.161 105.498 325.283 99.1125 330.527 93.6654C335.772 88.2183 341.918 83.9306 349.022 80.8022C356.107 77.6738 363.762 76.1096 372.024 76.1096C380.287 76.1096 387.961 77.6738 395.083 80.8022C402.204 83.9306 408.424 88.2183 413.706 93.6654C418.987 99.1125 423.128 105.48 426.127 112.804C429.127 120.109 430.636 127.949 430.636 136.303V136.948V137.076V182.788H430.617Z" fill="white"/>
<path d="M1.60439 28.4108C0.481853 25.8161 -0.0518134 23.1845 0.00339345 20.4794C0.0586003 17.7927 0.573864 15.2716 1.53078 12.9345C2.4877 10.5974 3.92308 8.48112 5.81851 6.56728C7.69555 4.65344 9.97743 3.18126 12.6274 2.13233C15.0933 1.1018 17.596 0.604942 20.1539 0.660149C22.7118 0.715356 25.1409 1.23062 27.4412 2.20594C29.7415 3.19966 31.8025 4.59824 33.6428 6.40166C35.483 8.20508 36.9552 10.4134 38.0961 13.0081C38.0961 13.0081 82.5928 118.49 83.4945 120.551C84.8195 123.551 89.5857 123.385 90.8187 120.533C91.7388 118.398 135.904 13.0081 135.904 13.0081C136.916 10.5238 138.389 8.3523 140.266 6.47527C142.161 4.61664 144.259 3.18126 146.559 2.20594C148.841 1.23062 151.27 0.715356 153.828 0.660149C156.386 0.604942 158.944 1.1018 161.502 2.13233C164.06 3.16286 166.25 4.61664 168.09 6.49367C169.93 8.37071 171.329 10.487 172.304 12.8609C173.279 15.2532 173.776 17.7743 173.831 20.4794C173.887 23.1661 173.353 25.8161 172.23 28.4108L105.393 187.075C103.755 191.013 101.308 194.05 98.0323 196.166C94.7567 198.282 91.1867 199.405 87.3038 199.515H85.7764L83.789 199.202C80.5134 198.687 77.5322 197.399 74.8271 195.32C72.1219 193.258 70.0425 190.498 68.6255 187.075L1.60439 28.4108Z" fill="white"/>
<path d="M588.123 138.383C588.123 129.77 589.742 121.692 593.018 114.165C596.275 106.639 600.71 100.051 606.286 94.3828C611.861 88.7149 618.376 84.2616 625.792 81.0044C633.227 77.7472 641.14 76.1094 649.568 76.1094C658.07 76.1094 666.038 77.7472 673.454 81.0044C680.888 84.2616 687.366 88.7333 692.905 94.3828C698.444 100.051 702.824 106.639 706.044 114.165C709.265 121.692 710.884 129.77 710.884 138.383C710.884 146.921 709.265 154.963 706.044 162.545C702.824 170.127 698.444 176.733 692.905 182.383C687.366 188.05 680.888 192.504 673.454 195.761C666.019 199.018 658.07 200.656 649.568 200.656C641.158 200.656 633.227 199.018 625.792 195.761C618.358 192.504 611.861 188.032 606.286 182.383C600.71 176.733 596.275 170.108 593.018 162.545C589.742 154.963 588.123 146.921 588.123 138.383ZM621.615 138.383C621.615 142.302 622.369 145.983 623.878 149.424C625.387 152.865 627.393 155.865 629.933 158.441C632.454 161.018 635.435 163.042 638.821 164.514C642.207 166.005 645.795 166.741 649.568 166.741C653.432 166.741 657.058 166.005 660.462 164.514C663.848 163.042 666.792 161.018 669.295 158.441C671.779 155.865 673.748 152.865 675.221 149.424C676.674 145.983 677.41 142.302 677.41 138.383C677.41 134.463 676.674 130.783 675.221 127.341C673.767 123.9 671.798 120.901 669.295 118.324C666.792 115.766 663.866 113.742 660.462 112.251C657.058 110.779 653.451 110.025 649.568 110.025C645.795 110.025 642.207 110.761 638.821 112.251C635.416 113.724 632.454 115.766 629.933 118.324C627.393 120.901 625.387 123.9 623.878 127.341C622.351 130.783 621.615 134.463 621.615 138.383Z" fill="white"/>
<path d="M726.581 138.383C726.581 129.77 728.219 121.692 731.476 114.165C734.733 106.639 739.168 100.051 744.744 94.3828C750.32 88.7149 756.834 84.2616 764.269 81.0044C771.685 77.7472 779.616 76.1094 788.026 76.1094C796.528 76.1094 804.496 77.7472 811.931 81.0044C819.365 84.2616 825.843 88.7333 831.382 94.3828C836.921 100.051 841.301 106.639 844.521 114.165C847.742 121.692 849.343 129.77 849.343 138.383C849.343 146.921 847.742 154.963 844.521 162.545C841.301 170.127 836.921 176.733 831.382 182.383C825.843 188.05 819.365 192.504 811.931 195.761C804.496 199.018 796.528 200.656 788.026 200.656C779.616 200.656 771.685 199.018 764.269 195.761C756.834 192.504 750.338 188.032 744.744 182.383C739.168 176.733 734.733 170.108 731.476 162.545C728.219 154.963 726.581 146.921 726.581 138.383ZM760.092 138.383C760.092 142.302 760.846 145.983 762.337 149.424C763.846 152.865 765.852 155.865 768.391 158.441C770.931 161.018 773.893 163.042 777.279 164.514C780.665 166.005 784.254 166.741 788.026 166.741C791.891 166.741 795.516 166.005 798.92 164.514C802.306 163.042 805.251 161.018 807.754 158.441C810.238 155.865 812.225 152.865 813.679 149.424C815.133 145.983 815.869 142.302 815.869 138.383C815.869 134.463 815.133 130.783 813.679 127.341C812.225 123.9 810.238 120.901 807.754 118.324C805.269 115.766 802.325 113.742 798.92 112.251C795.534 110.779 791.909 110.025 788.026 110.025C784.254 110.025 780.665 110.761 777.279 112.251C773.893 113.724 770.931 115.766 768.391 118.324C765.87 120.901 763.846 123.9 762.337 127.341C760.828 130.783 760.092 134.463 760.092 138.383Z" fill="white"/>
<path d="M573.327 24.8783V18.4375C573.327 15.99 572.922 13.7081 572.057 11.5366C571.174 9.36517 569.996 7.48813 568.45 5.90554C566.905 4.34134 565.101 3.10839 563.04 2.18828C560.979 1.26816 558.789 0.808105 556.452 0.808105C554.06 0.808105 551.851 1.26816 549.827 2.18828C547.821 3.10839 546.055 4.34134 544.546 5.90554C543.055 7.46973 541.896 9.36517 541.086 11.5366C540.258 13.7081 539.853 16.0084 539.853 18.4375V24.8783V41.7348V48.4148V65.0137V83.0111C535.565 80.8396 531.112 79.1466 526.456 77.9137C521.837 76.6991 516.979 76.0734 511.9 76.0734C503.417 76.0734 495.43 77.7112 488.014 80.9684C480.579 84.2256 474.102 88.6974 468.563 94.3653C463.042 100.015 458.662 106.603 455.423 114.148C452.185 121.693 450.602 129.753 450.602 138.365C450.602 146.904 452.203 154.946 455.423 162.527C458.644 170.091 463.042 176.697 468.563 182.365C474.12 188.015 480.579 192.486 488.014 195.743C495.448 199.001 503.417 200.638 511.9 200.638C520.236 200.638 528.113 199.019 535.492 195.817C542.871 192.578 549.349 188.18 554.943 182.641C560.519 177.065 564.935 170.551 568.211 163.116C571.468 155.682 573.198 147.732 573.364 139.285V65.0137V48.4148V24.8599H573.327V24.8783ZM537.59 149.425C536.099 152.885 534.075 155.866 531.554 158.424C528.996 161 526.051 163.043 522.647 164.515C519.261 165.987 515.673 166.741 511.882 166.741C508.017 166.741 504.392 165.987 500.988 164.515C497.602 163.043 494.657 161.018 492.154 158.424C489.67 155.866 487.683 152.866 486.247 149.425C484.775 146.002 484.057 142.303 484.057 138.384C484.057 134.464 484.775 130.802 486.247 127.342C487.701 123.919 489.689 120.901 492.154 118.343C494.657 115.786 497.602 113.761 500.988 112.252C504.392 110.78 507.999 110.062 511.882 110.062C515.673 110.062 519.261 110.78 522.647 112.252C526.051 113.743 528.996 115.786 531.554 118.343C534.075 120.901 536.099 123.919 537.59 127.342C539.08 130.802 539.835 134.464 539.835 138.384C539.835 142.303 539.08 145.984 537.59 149.425Z" fill="white"/>
</svg>
