<svg width="850" height="201" viewBox="0 0 850 201" fill="none" xmlns="http://www.w3.org/2000/svg">
<path d="M186.898 48.1695C186.898 45.6484 187.376 43.2745 188.315 41.0479C189.253 38.8212 190.541 36.9074 192.179 35.3064C193.817 33.687 195.694 32.4172 197.847 31.4603C200 30.5034 202.319 30.0249 204.803 30.0249C207.196 30.0249 209.514 30.5034 211.704 31.4603C213.894 32.4172 215.826 33.7054 217.501 35.3064C219.175 36.9258 220.482 38.8396 221.439 41.0479C222.377 43.2745 222.856 45.6484 222.856 48.1695C222.856 50.6907 222.377 53.0462 221.439 55.2176C220.5 57.3891 219.175 59.3029 217.501 60.9591C215.826 62.6153 213.894 63.9219 211.704 64.8788C209.514 65.8357 207.214 66.3142 204.803 66.3142C202.319 66.3142 200 65.8357 197.847 64.8788C195.694 63.9219 193.817 62.6153 192.179 60.9591C190.541 59.3029 189.253 57.3891 188.315 55.2176C187.376 53.0462 186.898 50.6907 186.898 48.1695Z" fill="#00B9CD"/>
<path d="M221.678 182.175C221.678 184.53 221.236 186.72 220.39 188.763C219.525 190.805 218.347 192.59 216.838 194.118C215.329 195.645 213.581 196.841 211.557 197.706C209.533 198.571 207.379 199.013 205.061 199.013C202.742 199.013 200.571 198.571 198.565 197.706C196.541 196.841 194.774 195.645 193.21 194.118C191.664 192.59 190.449 190.805 189.529 188.763C188.628 186.72 188.167 184.512 188.167 182.175V94.4326C188.167 92.0771 188.628 89.8872 189.529 87.8446C190.431 85.8019 191.646 84.0169 193.21 82.4895C194.774 80.9621 196.577 79.766 198.675 78.901C200.773 78.0361 203 77.5945 205.318 77.5945C207.637 77.5945 209.79 78.0361 211.759 78.901C213.728 79.766 215.476 80.9621 216.967 82.4895C218.476 84.0169 219.635 85.8019 220.445 87.8446C221.255 89.8872 221.678 92.0955 221.678 94.4326V182.175Z" fill="#00B9CD"/>
<path d="M250.79 48.1695C250.79 45.6484 251.268 43.2745 252.207 41.0479C253.145 38.8212 254.434 36.9074 256.071 35.3064C257.709 33.687 259.586 32.4172 261.739 31.4603C263.892 30.5034 266.211 30.0249 268.695 30.0249C271.088 30.0249 273.406 30.5034 275.596 31.4603C277.786 32.4172 279.718 33.7054 281.393 35.3064C283.068 36.9258 284.374 38.8396 285.331 41.0479C286.27 43.2745 286.748 45.6484 286.748 48.1695C286.748 50.6907 286.27 53.0462 285.331 55.2176C284.392 57.3891 283.068 59.3029 281.393 60.9591C279.718 62.6153 277.786 63.9219 275.596 64.8788C273.406 65.8357 271.106 66.3142 268.695 66.3142C266.211 66.3142 263.892 65.8357 261.739 64.8788C259.586 63.9219 257.709 62.6153 256.071 60.9591C254.434 59.3029 253.145 57.3891 252.207 55.2176C251.268 53.0462 250.79 50.6907 250.79 48.1695Z" fill="#00B9CD"/>
<path d="M285.57 182.175C285.57 184.53 285.129 186.72 284.282 188.763C283.417 190.805 282.239 192.59 280.731 194.118C279.222 195.645 277.473 196.841 275.449 197.706C273.425 198.571 271.272 199.013 268.953 199.013C266.634 199.013 264.463 198.571 262.457 197.706C260.433 196.841 258.666 195.645 257.102 194.118C255.556 192.59 254.342 190.805 253.422 188.763C252.52 186.72 252.06 184.512 252.06 182.175V94.4326C252.06 92.0771 252.52 89.8872 253.422 87.8446C254.323 85.8019 255.538 84.0169 257.102 82.4895C258.648 80.9621 260.47 79.766 262.567 78.901C264.665 78.0361 266.892 77.5945 269.211 77.5945C271.529 77.5945 273.682 78.0361 275.651 78.901C277.621 79.766 279.369 80.9621 280.859 82.4895C282.368 84.0169 283.528 85.8019 284.337 87.8446C285.147 89.8872 285.57 92.0955 285.57 94.4326V182.175Z" fill="#00B9CD"/>
<path d="M430.618 182.708C430.618 185.064 430.176 187.235 429.33 189.241C428.465 191.247 427.305 193.014 425.852 194.523C424.398 196.05 422.668 197.228 420.699 198.056C418.73 198.884 416.577 199.289 414.258 199.289C411.94 199.289 409.75 198.884 407.689 198.056C405.628 197.228 403.806 196.05 402.223 194.523C400.622 192.995 399.389 191.229 398.488 189.241C397.586 187.235 397.126 185.064 397.126 182.708V136.997C397.126 136.739 397.126 136.463 397.126 136.151C397.126 135.838 397.163 135.562 397.255 135.304C397.089 131.826 396.334 128.532 394.991 125.44C393.666 122.349 391.881 119.644 389.654 117.343C387.428 115.043 384.796 113.24 381.797 111.933C378.797 110.627 375.521 109.982 372.007 109.982C368.308 109.982 364.94 110.663 361.885 112.007C358.831 113.35 356.217 115.209 354.028 117.564C351.838 119.92 350.145 122.68 348.949 125.845C347.752 129.029 347.145 132.488 347.145 136.224V182.708C347.145 185.064 346.704 187.235 345.857 189.241C344.992 191.247 343.833 193.014 342.379 194.523C340.925 196.05 339.195 197.228 337.226 198.056C335.257 198.884 333.104 199.289 330.786 199.289C328.467 199.289 326.277 198.884 324.216 198.056C322.155 197.228 320.351 196.05 318.806 194.523C317.26 192.995 316.009 191.229 315.07 189.241C314.131 187.235 313.653 185.064 313.653 182.708V136.997V136.353V136.224C313.653 127.869 315.162 120.03 318.162 112.724C321.161 105.419 325.283 99.0331 330.528 93.586C335.773 88.139 341.919 83.8512 349.022 80.7229C356.107 77.5945 363.762 76.0303 372.025 76.0303C380.288 76.0303 387.961 77.5945 395.083 80.7229C402.205 83.8512 408.425 88.139 413.706 93.586C418.988 99.0331 423.128 105.4 426.128 112.724C429.127 120.03 430.636 127.869 430.636 136.224V136.868V136.997V182.708H430.618Z" fill="#00B9CD"/>
<path d="M1.60488 28.3314C0.482341 25.7367 -0.0513251 23.1052 0.00388173 20.4001C0.0590886 17.7133 0.574352 15.1922 1.53127 12.8551C2.48819 10.518 3.92357 8.40177 5.819 6.48793C7.69603 4.5741 9.97792 3.10192 12.6278 2.05299C15.0937 1.02246 17.5965 0.525596 20.1544 0.580803C22.7123 0.63601 25.1414 1.15127 27.4417 2.12659C29.742 3.12032 31.803 4.51889 33.6432 6.32231C35.4835 8.12574 36.9557 10.334 38.0966 12.9287C38.0966 12.9287 82.5933 118.411 83.495 120.472C84.82 123.471 89.5862 123.306 90.8191 120.453C91.7392 118.319 135.905 12.9287 135.905 12.9287C136.917 10.4444 138.389 8.27296 140.266 6.39592C142.161 4.53729 144.259 3.10192 146.56 2.12659C148.842 1.15127 151.271 0.63601 153.829 0.580803C156.386 0.525596 158.944 1.02246 161.502 2.05299C164.06 3.08351 166.25 4.53729 168.09 6.41433C169.931 8.29136 171.329 10.4076 172.304 12.7815C173.28 15.1738 173.777 17.6949 173.832 20.4001C173.887 23.0868 173.353 25.7367 172.231 28.3314L105.394 186.996C103.756 190.934 101.308 193.97 98.0328 196.087C94.7572 198.203 91.1872 199.325 87.3043 199.436H85.7769L83.7895 199.123C80.5138 198.608 77.5327 197.32 74.8275 195.24C72.1224 193.179 70.043 190.419 68.626 186.996L1.60488 28.3314Z" fill="#00B9CD"/>
<path d="M588.122 138.302C588.122 129.69 589.742 121.612 593.017 114.085C596.275 106.558 600.709 99.9705 606.285 94.3026C611.861 88.6347 618.376 84.1813 625.792 80.9241C633.226 77.6669 641.139 76.0291 649.568 76.0291C658.069 76.0291 666.038 77.6669 673.454 80.9241C680.888 84.1813 687.366 88.6531 692.905 94.3026C698.444 99.9705 702.824 106.558 706.044 114.085C709.265 121.612 710.884 129.69 710.884 138.302C710.884 146.841 709.265 154.883 706.044 162.465C702.824 170.046 698.444 176.653 692.905 182.302C687.366 187.97 680.888 192.424 673.454 195.681C666.019 198.938 658.069 200.576 649.568 200.576C641.158 200.576 633.226 198.938 625.792 195.681C618.357 192.424 611.861 187.952 606.285 182.302C600.709 176.653 596.275 170.028 593.017 162.465C589.742 154.883 588.122 146.841 588.122 138.302ZM621.614 138.302C621.614 142.222 622.369 145.903 623.878 149.344C625.387 152.785 627.393 155.785 629.932 158.361C632.453 160.937 635.435 162.961 638.821 164.434C642.207 165.924 645.795 166.66 649.568 166.66C653.432 166.66 657.057 165.924 660.462 164.434C663.848 162.961 666.792 160.937 669.295 158.361C671.779 155.785 673.748 152.785 675.22 149.344C676.674 145.903 677.41 142.222 677.41 138.302C677.41 134.383 676.674 130.702 675.22 127.261C673.767 123.82 671.797 120.82 669.295 118.244C666.792 115.686 663.866 113.662 660.462 112.171C657.057 110.699 653.45 109.945 649.568 109.945C645.795 109.945 642.207 110.681 638.821 112.171C635.416 113.643 632.453 115.686 629.932 118.244C627.393 120.82 625.387 123.82 623.878 127.261C622.351 130.702 621.614 134.383 621.614 138.302Z" fill="#804282"/>
<path d="M726.581 138.302C726.581 129.69 728.219 121.612 731.476 114.085C734.733 106.558 739.168 99.9705 744.744 94.3026C750.32 88.6347 756.835 84.1813 764.269 80.9241C771.685 77.6669 779.617 76.0291 788.026 76.0291C796.528 76.0291 804.497 77.6669 811.931 80.9241C819.366 84.1813 825.843 88.6531 831.382 94.3026C836.921 99.9705 841.301 106.558 844.521 114.085C847.742 121.612 849.343 129.69 849.343 138.302C849.343 146.841 847.742 154.883 844.521 162.465C841.301 170.046 836.921 176.653 831.382 182.302C825.843 187.97 819.366 192.424 811.931 195.681C804.497 198.938 796.528 200.576 788.026 200.576C779.617 200.576 771.685 198.938 764.269 195.681C756.835 192.424 750.339 187.952 744.744 182.302C739.168 176.653 734.733 170.028 731.476 162.465C728.219 154.883 726.581 146.841 726.581 138.302ZM760.092 138.302C760.092 142.222 760.846 145.903 762.337 149.344C763.846 152.785 765.852 155.785 768.391 158.361C770.931 160.937 773.894 162.961 777.28 164.434C780.666 165.924 784.254 166.66 788.026 166.66C791.891 166.66 795.516 165.924 798.921 164.434C802.307 162.961 805.251 160.937 807.754 158.361C810.238 155.785 812.225 152.785 813.679 149.344C815.133 145.903 815.869 142.222 815.869 138.302C815.869 134.383 815.133 130.702 813.679 127.261C812.225 123.82 810.238 120.82 807.754 118.244C805.269 115.686 802.325 113.662 798.921 112.171C795.535 110.699 791.909 109.945 788.026 109.945C784.254 109.945 780.666 110.681 777.28 112.171C773.894 113.643 770.931 115.686 768.391 118.244C765.87 120.82 763.846 123.82 762.337 127.261C760.828 130.702 760.092 134.383 760.092 138.302Z" fill="#804282"/>
<path d="M573.327 24.7978V18.357C573.327 15.9095 572.923 13.6276 572.058 11.4561C571.174 9.28466 569.997 7.40763 568.451 5.82503C566.905 4.26084 565.102 3.02788 563.041 2.10777C560.98 1.18766 558.79 0.7276 556.453 0.7276C554.06 0.7276 551.852 1.18766 549.828 2.10777C547.822 3.02788 546.055 4.26084 544.546 5.82503C543.056 7.38922 541.896 9.28466 541.087 11.4561C540.259 13.6276 539.854 15.9279 539.854 18.357V24.7978V41.6543V48.3343V64.9331V82.9306C535.566 80.7591 531.113 79.0661 526.457 77.8331C521.838 76.6186 516.98 75.9929 511.901 75.9929C503.417 75.9929 495.431 77.6307 488.015 80.8879C480.58 84.1451 474.102 88.6169 468.563 94.2848C463.043 99.9343 458.663 106.522 455.424 114.067C452.185 121.612 450.603 129.672 450.603 138.285C450.603 146.823 452.204 154.865 455.424 162.447C458.644 170.01 463.043 176.617 468.563 182.284C474.121 187.934 480.58 192.406 488.015 195.663C495.449 198.92 503.417 200.558 511.901 200.558C520.237 200.558 528.113 198.939 535.492 195.737C542.872 192.498 549.349 188.1 554.944 182.561C560.52 176.985 564.936 170.47 568.212 163.036C571.469 155.601 573.199 147.651 573.364 139.205V64.9331V48.3343V24.7794H573.327V24.7978ZM537.59 149.344C536.1 152.804 534.075 155.785 531.554 158.343C528.996 160.919 526.052 162.962 522.648 164.434C519.262 165.906 515.673 166.661 511.882 166.661C508.018 166.661 504.393 165.906 500.988 164.434C497.602 162.962 494.658 160.938 492.155 158.343C489.671 155.785 487.683 152.786 486.248 149.344C484.776 145.922 484.058 142.223 484.058 138.303C484.058 134.383 484.776 130.721 486.248 127.262C487.702 123.839 489.689 120.821 492.155 118.263C494.658 115.705 497.602 113.681 500.988 112.172C504.393 110.7 507.999 109.982 511.882 109.982C515.673 109.982 519.262 110.7 522.648 112.172C526.052 113.662 528.996 115.705 531.554 118.263C534.075 120.821 536.1 123.839 537.59 127.262C539.081 130.721 539.835 134.383 539.835 138.303C539.835 142.223 539.081 145.903 537.59 149.344Z" fill="#804282"/>
</svg>
